<?xml version="1.0" encoding="UTF-8"?>
<svg version="1.1" viewBox="0 0 2048 348" width="1920" height="327" xmlns="http://www.w3.org/2000/svg">
<path transform="translate(0)" d="m0 0h2048v348h-2048z" fill="#FC3E03"/>
<path transform="translate(750,56)" d="m0 0h44l4 10 22 65 34 102 3 10 2-3 22-65 15-43 19-56 7-20h40v223h-28l-1-183-16 47-15 43-18 52-14 40-1 1h-26l-4-9-32-95-28-82-1 186h-28l-1-4v-204z" fill="#FEFFFE"/>
<path transform="translate(1636,77)" d="m0 0h16l14 3 13 5 12 8 10 10 7 11 7 16 4 19 1 12v13l-2 19-4 15-8 16-6 8-6 7-14 10-12 5-14 3h-21l-17-4-15-8-12-11-7-8-8-15-4-13-2-11-1-20 2-24 4-17 5-11 6-10 8-9 14-10 15-6z" fill="#FC3E03"/>
<path transform="translate(1100,77)" d="m0 0h15l16 3 17 8 10 8 9 10 8 14 5 14 3 16 1 22-2 20-4 15-5 12-7 11-13 13-14 8-11 4-10 2h-21l-17-4-12-6-9-7-6-5-9-12-6-12-4-13-2-10-1-13v-11l2-21 4-17 6-14 9-12 9-8 13-8 14-5z" fill="#FC3E03"/>
<path transform="translate(410,55)" d="m0 0 3 4 17 41 42 103 16 39 14 34v3h-33l-4-9-16-41-6-16v-2l-93 1-21 58-4 9h-31l3-10 18-47 40-104 21-55 3-7z" fill="#FEFFFE"/>
<path transform="translate(1093,52)" d="m0 0h29l15 3 15 5 15 8 10 8 8 7 10 13 7 12 6 15 4 16 2 15v27l-3 19-5 17-8 17-8 11-9 10-8 7-13 8-16 7-15 4-18 2-19-1-15-3-14-5-15-8-10-8-13-13-9-14-6-12-5-15-3-13-1-8v-29l3-20 5-17 8-16 7-11 12-13 13-10 16-8 16-5zm7 25-15 3-13 5-11 7-11 10-9 14-5 13-3 14-2 21v11l2 19 4 14 4 9 7 12 8 9 12 9 12 6 17 4h21l17-4 15-8 10-9 7-7 8-14 6-18 2-12 1-21-2-21-4-15-7-16-9-12-7-7-11-7-13-6-16-3z" fill="#FEFFFE"/>
<path transform="translate(1630,52)" d="m0 0h28l16 3 16 6 16 9 14 12 10 12 9 16 6 16 4 19 1 8v29l-3 19-7 21-8 15-9 12-11 11-14 9-15 7-13 4-11 2-20 1-18-2-20-6-17-9-11-9-12-12-9-14-7-15-5-16-3-19v-24l3-22 6-20 8-16 9-12 8-9 13-10 12-7 17-6zm6 25-15 3-15 6-11 8-9 8-7 11-4 8-4 12-3 18-1 24 2 18 4 15 8 16 7 9 9 9 11 7 11 5 14 3h21l17-4 12-6 13-10 9-11 8-15 4-13 2-12 1-12v-13l-2-18-4-16-8-17-8-10-8-8-15-9-16-5-7-1z" fill="#FEFFFE"/>
<path transform="translate(526,56)" d="m0 0h30l1 146 3 19 4 11 6 8 8 7 11 5 15 3h17l17-3 10-4 9-6 7-10 4-12 2-11 1-11 1-142h30v136l-2 24-4 18-5 12-8 11-7 7-10 7-13 6-15 4-20 2-22-1-19-4-12-5-10-6-10-9-7-10-5-11-4-14-2-13-1-13z" fill="#FEFFFE"/>
<path transform="translate(1230,56)" d="m0 0h32l17 48 19 53 20 56 13 38 13-38 24-64 15-41 19-51 1-1h30l-6 17-20 51-36 92-16 41-9 22h-30l-4-8-18-47-57-147-7-18z" fill="#FEFFFE"/>
<path transform="translate(1465,56)" d="m0 0h29v223h-29l-1-1v-221z" fill="#FEFFFE"/>
<path transform="translate(394,81)" d="m0 0 2 2 12 35 25 66v3h-74l2-9 24-64 7-25z" fill="#FC3E03"/>
<path transform="translate(0)" d="m0 0h180l-4 3-9 1-2 1-18 2-9 2-18 1-17 5-3 2-9 1-4 2-14 2-8 4h-5l-1-3-11 3-8 3-10 1-4 2v2l-17 6-4 2-4 4h-1z" fill="#E9421E"/>
<path transform="translate(11,70)" d="m0 0 5 1-1 3 2 1-2 5-4 2-5-1 1-8z" fill="#E9421E"/>
</svg>
